<svg width="10" height="10" viewBox="0 0 10 10" fill="none" xmlns="http://www.w3.org/2000/svg">
<path fill-rule="evenodd" clip-rule="evenodd" d="M4.99997 0.839966C3.87037 0.839966 3.72861 0.844766 3.28477 0.864926C2.84189 0.885086 2.53949 0.955486 2.27485 1.05821C1.99731 1.16273 1.74592 1.32654 1.53821 1.53821C1.3265 1.74602 1.16269 1.99752 1.05821 2.27517C0.955486 2.53949 0.885406 2.84189 0.864926 3.28477C0.844766 3.72861 0.839966 3.87037 0.839966 4.99997C0.839966 6.12957 0.844766 6.27133 0.864926 6.71517C0.885086 7.15805 0.955486 7.46045 1.05821 7.72477C1.16477 7.99837 1.30685 8.23037 1.53821 8.46173C1.74592 8.67339 1.99731 8.8372 2.27485 8.94173C2.53949 9.04413 2.84189 9.11453 3.28477 9.13501C3.72861 9.15517 3.87037 9.15997 4.99997 9.15997C6.12957 9.15997 6.27133 9.15517 6.71517 9.13501C7.15805 9.11485 7.46045 9.04445 7.72477 8.94173C8.00242 8.83725 8.25392 8.67344 8.46173 8.46173C8.67343 8.25391 8.83724 8.00241 8.94173 7.72477C9.04413 7.46045 9.11453 7.15805 9.13501 6.71517C9.15517 6.27133 9.15997 6.12957 9.15997 4.99997C9.15997 3.87037 9.15517 3.72861 9.13501 3.28477C9.11485 2.84189 9.04445 2.53949 8.94141 2.27517C8.83701 1.99755 8.67331 1.74605 8.46173 1.53821C8.25392 1.32649 8.00242 1.16268 7.72477 1.05821C7.46045 0.955806 7.15805 0.885406 6.71517 0.864926C6.27133 0.844766 6.12957 0.839966 4.99997 0.839966ZM4.99997 1.58941C6.11069 1.58941 6.24221 1.59389 6.68093 1.61373C7.08637 1.63229 7.30685 1.70013 7.45341 1.75709C7.64765 1.83261 7.78621 1.92253 7.93181 2.06813C8.07741 2.21373 8.16733 2.35229 8.24285 2.54653C8.29981 2.69309 8.36765 2.91325 8.38621 3.31901C8.40605 3.75741 8.41053 3.88925 8.41053 4.99997C8.41053 6.11069 8.40605 6.24221 8.38621 6.68093C8.36765 7.08669 8.29981 7.30685 8.24285 7.45341C8.17621 7.63411 8.06992 7.79758 7.93181 7.93181C7.79759 8.06993 7.63411 8.17622 7.45341 8.24285C7.30685 8.29981 7.08637 8.36765 6.68093 8.38621C6.24253 8.40605 6.11069 8.41053 4.99997 8.41053C3.88925 8.41053 3.75741 8.40605 3.31901 8.38621C2.91325 8.36765 2.69309 8.29981 2.54653 8.24285C2.36582 8.17622 2.20235 8.06993 2.06813 7.93181C1.93002 7.79757 1.82374 7.6341 1.75709 7.45341C1.70013 7.30685 1.63229 7.08669 1.61373 6.68093C1.59389 6.24253 1.58941 6.11069 1.58941 4.99997C1.58941 3.88925 1.59389 3.75773 1.61373 3.31901C1.63229 2.91325 1.70013 2.69309 1.75709 2.54653C1.83261 2.35229 1.92253 2.21373 2.06813 2.06813C2.20235 1.93001 2.36582 1.82372 2.54653 1.75709C2.69309 1.70013 2.91325 1.63229 3.31901 1.61373C3.75741 1.59389 3.88925 1.58941 4.99997 1.58941" fill="#E2127A"/>
<path fill-rule="evenodd" clip-rule="evenodd" d="M5.00001 2.75991C4.40592 2.75991 3.83617 2.99591 3.41609 3.41599C2.99601 3.83607 2.76001 4.40582 2.76001 4.99991C2.76001 5.59399 2.99601 6.16374 3.41609 6.58383C3.83617 7.00391 4.40592 7.23991 5.00001 7.23991C5.59409 7.23991 6.16385 7.00391 6.58393 6.58383C7.00401 6.16374 7.24001 5.59399 7.24001 4.99991C7.24001 4.40582 7.00401 3.83607 6.58393 3.41599C6.16385 2.99591 5.59409 2.75991 5.00001 2.75991ZM5.00001 6.43991C4.6181 6.43991 4.25183 6.28819 3.98178 6.01814C3.71172 5.74809 3.56001 5.38182 3.56001 4.99991C3.56001 4.618 3.71172 4.25173 3.98178 3.98167C4.25183 3.71162 4.6181 3.55991 5.00001 3.55991C5.38192 3.55991 5.74819 3.71162 6.01824 3.98167C6.2883 4.25173 6.44001 4.618 6.44001 4.99991C6.44001 5.38182 6.2883 5.74809 6.01824 6.01814C5.74819 6.28819 5.38192 6.43991 5.00001 6.43991ZM7.78401 2.79191C7.78401 2.85914 7.77077 2.92572 7.74504 2.98784C7.71931 3.04996 7.68159 3.1064 7.63405 3.15395C7.5865 3.20149 7.53006 3.2392 7.46794 3.26493C7.40582 3.29066 7.33925 3.30391 7.27201 3.30391C7.20477 3.30391 7.13819 3.29066 7.07608 3.26493C7.01396 3.2392 6.95751 3.20149 6.90997 3.15395C6.86243 3.1064 6.82471 3.04996 6.79898 2.98784C6.77325 2.92572 6.76001 2.85914 6.76001 2.79191C6.76001 2.65612 6.81395 2.52589 6.90997 2.42987C7.00599 2.33385 7.13622 2.27991 7.27201 2.27991C7.4078 2.27991 7.53803 2.33385 7.63405 2.42987C7.73007 2.52589 7.78401 2.65612 7.78401 2.79191Z" fill="#E2127A"/>
</svg>
