<svg width="10" height="9" viewBox="0 0 10 9" fill="none" xmlns="http://www.w3.org/2000/svg">
<path d="M9.54395 1.37596C9.19195 1.53596 8.83995 1.63196 8.42395 1.69596C8.80795 1.43996 9.12795 1.08796 9.28795 0.639963C8.90395 0.863963 8.48795 1.02396 8.07195 1.11996C7.71995 0.735963 7.20795 0.511963 6.66395 0.511963C5.60795 0.511963 4.71195 1.37596 4.71195 2.46396C4.71195 2.62396 4.74395 2.75196 4.77595 2.91196C3.17595 2.84796 1.73595 2.04796 0.775951 0.895963C0.615951 1.11996 0.519951 1.43996 0.519951 1.79196C0.519951 2.46396 0.871951 3.07196 1.38395 3.39196C1.06395 3.39196 0.775951 3.29596 0.519951 3.13596V3.16796C0.519951 4.09596 1.19195 4.89596 2.08795 5.05596C1.92795 5.08796 1.76795 5.11996 1.57595 5.11996C1.44795 5.11996 1.31995 5.11996 1.22395 5.08796C1.47995 5.85596 2.18395 6.43196 3.04795 6.43196C2.37595 6.94396 1.54395 7.26396 0.647951 7.26396C0.487951 7.26396 0.327951 7.26396 0.199951 7.23196C0.967951 7.83996 1.99195 8.15996 3.07995 8.15996C6.63195 8.15996 8.58395 5.21596 8.58395 2.65596V2.39996C8.96795 2.11196 9.28795 1.79196 9.54395 1.37596Z" fill="#E2127A"/>
</svg>
